<?xml version="1.0" standalone="no"?>
<!DOCTYPE svg PUBLIC "-//W3C//DTD SVG 20010904//EN"
 "http://www.w3.org/TR/2001/REC-SVG-20010904/DTD/svg10.dtd">
<svg version="1.0" xmlns="http://www.w3.org/2000/svg"
 width="500.000000pt" height="500.000000pt" viewBox="0 0 500.000000 500.000000"
 preserveAspectRatio="xMidYMid meet">
<metadata>
Created by potrace 1.11, written by Peter Selinger 2001-2013
</metadata>
<g transform="translate(0.000000,500.000000) scale(0.100000,-0.100000)"
fill="#000000" stroke="none">
<path d="M0 2500 l0 -2500 2500 0 2500 0 0 2500 0 2500 -2500 0 -2500 0 0
-2500z m1152 751 l3 -750 149 407 c81 224 205 561 274 750 l125 342 253 0 254
0 0 -752 1 -753 219 600 c121 330 245 669 276 753 l57 152 251 -2 251 -3 5
-742 5 -741 271 741 271 742 272 3 c161 1 271 -1 269 -7 -1 -5 -248 -680 -548
-1500 l-545 -1491 -252 0 -253 0 0 748 c0 419 -4 740 -9 732 -7 -12 -488
-1321 -533 -1452 l-10 -28 -254 0 -254 0 -2 747 -3 748 -214 -585 c-117 -322
-241 -658 -274 -747 l-59 -163 -254 0 -254 0 0 1500 0 1500 255 0 255 0 2
-749z"/>
</g>
</svg>
